<?xml version="1.0" standalone="no"?>
<!DOCTYPE svg PUBLIC "-//W3C//DTD SVG 20010904//EN"
 "http://www.w3.org/TR/2001/REC-SVG-20010904/DTD/svg10.dtd">
<svg version="1.0" xmlns="http://www.w3.org/2000/svg"
 width="1428.000000pt" height="663.000000pt" viewBox="0 0 1428.000000 663.000000"
 preserveAspectRatio="xMidYMid meet">
<metadata>
Created by potrace 1.16, written by Peter Selinger 2001-2019
</metadata>
<g transform="translate(0.000000,663.000000) scale(0.100000,-0.100000)"
fill="#000000" stroke="none">
<path d="M3 5123 c4 -1313 6 -1524 20 -1633 9 -69 17 -156 17 -193 0 -61 -2
-70 -20 -74 -19 -5 -20 -14 -20 -124 l0 -119 30 0 c26 0 30 -4 31 -27 0 -16 5
-86 10 -158 5 -71 12 -223 15 -337 l6 -207 -46 -13 -46 -12 0 -137 0 -137 33
8 c17 5 41 12 53 15 20 6 21 1 32 -122 7 -70 17 -204 22 -298 6 -93 13 -193
16 -221 l6 -51 -81 -33 -81 -32 0 -149 0 -149 43 17 c23 9 44 19 47 22 11 13
51 31 69 31 17 0 20 -11 25 -127 4 -71 11 -186 16 -258 5 -71 11 -167 13 -213
4 -96 13 -85 -125 -156 l-83 -43 -3 -96 -3 -97 1201 0 c793 0 1200 3 1200 10
0 6 9 10 20 10 11 0 20 -4 20 -10 0 -6 87 -10 240 -10 l239 0 26 26 c30 30 48
25 20 -6 -18 -20 -18 -20 358 -20 328 0 378 2 391 16 9 8 16 20 16 25 0 5 7 9
15 9 8 0 15 9 15 19 0 12 9 21 25 25 14 4 23 11 20 16 -4 6 7 24 24 41 17 17
31 37 31 45 0 23 81 104 103 104 19 0 20 -1 2 -20 -10 -11 -24 -20 -31 -20 -6
0 -17 -12 -23 -27 -12 -29 -31 -61 -68 -111 -12 -16 -20 -32 -16 -36 3 -3 1
-6 -5 -6 -17 0 -72 -50 -72 -66 0 -12 52 -14 348 -12 346 3 347 3 357 25 10
24 41 37 51 21 3 -5 1 -15 -5 -21 -6 -6 -11 -15 -11 -19 0 -4 166 -8 369 -8
l370 0 15 31 c9 17 13 36 10 41 -3 5 0 15 8 21 8 7 25 44 37 84 13 40 29 77
37 84 8 6 14 22 14 35 0 17 6 24 19 24 24 0 36 -17 24 -33 -11 -14 -38 -89
-47 -128 -3 -14 -13 -43 -23 -65 -9 -21 -17 -42 -17 -46 -1 -3 -4 -10 -8 -14
-5 -4 -8 -13 -8 -21 0 -11 68 -13 369 -13 328 0 370 2 375 16 3 9 4 20 0 25
-3 5 0 9 7 9 7 0 9 10 6 29 -4 21 -2 31 9 35 8 3 13 10 9 15 -3 5 -1 13 5 16
6 4 8 15 5 25 -3 10 -1 21 5 25 5 3 7 17 4 30 -3 12 -1 26 5 29 6 4 11 20 11
37 0 24 4 29 26 29 19 0 24 -4 20 -17 -2 -10 -10 -61 -17 -113 -7 -52 -18 -98
-25 -102 -6 -4 -12 -26 -12 -48 l-1 -40 342 0 c339 0 342 0 356 21 11 18 11
23 0 30 -11 6 -11 11 -2 20 7 7 10 24 7 39 -3 14 1 42 8 61 8 19 14 60 13 91
0 48 2 58 16 58 21 0 32 -72 19 -121 -5 -19 -11 -59 -12 -89 -2 -30 -7 -58
-12 -61 -4 -4 0 -16 10 -28 18 -21 24 -21 334 -21 l315 0 1 25 c1 14 -3 25
-10 25 -7 0 -12 38 -14 118 -3 108 -2 116 13 101 17 -16 32 -67 39 -125 2 -17
9 -41 15 -53 7 -12 10 -30 6 -40 -3 -10 -3 -26 1 -35 6 -14 41 -16 360 -16
332 0 353 1 347 17 -3 10 -12 25 -20 34 -7 9 -11 18 -8 21 3 3 -1 18 -9 33 -8
15 -12 34 -9 42 3 7 -3 23 -13 34 -11 12 -20 31 -21 43 -3 36 -9 56 -21 68
-19 19 -14 28 13 28 18 0 25 -5 25 -18 0 -11 14 -38 31 -61 17 -24 28 -49 25
-57 -3 -8 3 -29 14 -46 10 -17 17 -35 14 -40 -3 -5 0 -16 7 -24 7 -9 14 -23
15 -31 7 -45 -7 -43 391 -43 316 1 375 3 361 14 -10 7 -18 20 -18 28 0 8 -11
25 -24 37 -14 13 -22 30 -19 40 2 10 -7 31 -21 48 -14 17 -26 43 -26 57 0 14
-5 26 -10 26 -14 0 -46 68 -36 77 10 11 40 -11 45 -33 2 -10 9 -23 17 -27 8
-4 14 -14 14 -21 0 -7 11 -23 25 -36 14 -13 25 -33 25 -45 0 -12 11 -32 25
-45 14 -13 25 -34 25 -46 0 -14 8 -25 20 -29 11 -3 20 -15 20 -26 0 -18 11
-19 377 -19 l377 0 -42 41 c-23 22 -44 49 -45 59 -2 11 -19 39 -37 62 -19 24
-39 49 -45 56 -5 7 -17 21 -25 31 -28 32 -41 61 -29 61 19 0 137 -131 142
-159 3 -15 19 -34 36 -44 17 -10 31 -27 31 -37 0 -10 9 -22 20 -25 11 -3 20
-15 20 -26 0 -18 16 -19 751 -19 494 0 748 4 744 10 -3 6 -2 10 4 10 5 0 13
-5 16 -10 8 -14 485 -14 485 0 0 6 -4 10 -10 10 -5 0 -10 5 -10 10 0 16 18 12
40 -10 19 -19 35 -20 775 -20 496 0 754 4 750 10 -3 6 3 10 14 10 12 0 21 -4
21 -10 0 -7 143 -10 410 -10 l410 0 0 148 0 147 -81 44 -82 43 7 72 c4 39 11
157 16 261 12 235 20 327 30 338 4 5 18 2 31 -6 13 -8 36 -17 52 -21 l27 -6 0
140 0 140 -39 6 c-21 3 -43 9 -49 13 -12 7 2 552 16 656 7 51 14 56 55 40 16
-7 17 3 17 129 0 124 -2 136 -18 136 -10 0 -22 4 -27 9 -12 12 -2 312 14 425
6 43 11 122 11 177 0 59 4 99 10 99 7 0 10 613 10 1820 l0 1820 -1615 0
c-1427 0 -1616 -2 -1621 -15 -4 -8 -12 -15 -20 -15 -8 0 -14 7 -14 15 0 8 -5
15 -11 15 -7 0 -9 -9 -6 -21 6 -23 -26 -63 -46 -56 -7 2 -13 20 -15 40 -2 20
-8 37 -13 37 -5 0 -8 -17 -6 -37 5 -50 -6 -70 -42 -78 -17 -4 -33 -15 -36 -26
-4 -10 -14 -19 -24 -19 -10 0 -28 -11 -41 -25 -41 -44 -51 -34 -48 53 2 55 7
81 18 89 26 21 48 15 53 -14 3 -19 4 -14 6 16 1 39 -1 43 -19 37 -11 -3 -29
-9 -40 -12 -12 -4 -20 -2 -20 5 0 15 -40 14 -41 -1 0 -7 0 -60 1 -117 1 -84
-2 -107 -16 -122 -9 -10 -25 -19 -34 -19 -10 0 -21 -7 -24 -16 -4 -9 -13 -14
-21 -10 -8 3 -15 1 -15 -4 0 -5 -17 -18 -38 -29 -21 -11 -44 -27 -51 -35 -21
-25 -31 -19 -31 19 0 19 -5 35 -11 35 -8 0 -10 -14 -6 -39 4 -36 -5 -61 -25
-61 -4 0 -8 36 -8 80 0 73 2 80 20 80 10 0 24 9 30 20 6 11 22 23 36 26 13 3
29 15 35 25 5 11 16 19 24 19 12 0 15 -14 15 -60 0 -33 4 -60 10 -60 6 0 10
33 10 80 0 73 2 80 20 80 11 0 20 5 20 10 0 6 -9 10 -20 10 -11 0 -20 -4 -20
-9 0 -5 -15 -15 -32 -22 -18 -7 -41 -22 -50 -34 -14 -15 -20 -17 -26 -7 -7 10
-11 10 -22 -3 -24 -29 -48 -18 -53 23 l-4 37 -1 -37 c-2 -29 3 -40 21 -49 22
-12 22 -13 -7 -20 -46 -13 -56 3 -56 87 0 68 2 74 20 74 11 0 23 7 26 15 4 9
18 22 33 30 l26 14 -27 1 c-16 0 -28 -4 -28 -10 0 -5 -7 -7 -15 -3 -9 3 -24
-2 -35 -12 -11 -10 -28 -15 -40 -12 -16 4 -20 0 -20 -19 0 -17 -6 -24 -20 -24
-17 0 -20 7 -20 40 l0 40 -114 0 -115 0 -3 -27 c-2 -17 -10 -29 -20 -31 -14
-3 -18 3 -18 27 0 26 -4 31 -24 31 -19 0 -25 -6 -28 -27 -3 -27 -5 -28 -68
-31 -91 -4 -114 3 -106 33 6 22 3 25 -19 25 -21 0 -25 -5 -25 -30 l0 -31 -82
3 c-82 3 -83 3 -86 31 -2 18 -9 27 -21 27 -12 0 -17 -8 -16 -27 l0 -28 -95 0
-95 0 3 28 c2 19 -2 27 -13 27 -8 0 -16 -6 -16 -12 -1 -7 -2 -20 -3 -28 -1
-12 -18 -15 -86 -15 l-85 0 -3 28 c-2 15 -9 27 -17 27 -10 0 -14 -21 -15 -87
-1 -49 -1 -101 0 -118 1 -16 1 -39 0 -50 -1 -11 -2 -45 -4 -75 l-2 -55 -89 -3
c-48 -2 -91 1 -95 5 -3 4 -4 35 -2 68 l4 61 76 -1 c43 0 78 4 79 10 2 6 -29
10 -77 10 -45 0 -81 4 -83 10 -1 6 -1 40 1 78 l4 67 89 0 c58 0 88 4 84 10 -3
6 -46 10 -94 10 l-88 0 5 30 c4 26 1 30 -18 30 -19 0 -21 -4 -15 -30 l7 -31
-89 3 -88 3 3 28 c2 23 -1 27 -22 27 -19 0 -25 -6 -28 -27 -3 -28 -4 -28 -73
-28 -69 1 -70 1 -73 28 l-3 27 -130 0 -129 0 0 -25 c0 -14 -3 -25 -7 -26 -141
-14 -180 -7 -167 34 4 13 0 17 -20 17 -20 0 -25 -6 -28 -27 l-3 -28 -90 0 -90
0 2 28 c1 23 -2 27 -23 27 -21 0 -24 -4 -22 -27 l3 -28 -72 0 c-40 -1 -75 -4
-79 -8 -15 -15 10 -21 76 -19 79 4 78 4 78 -94 l0 -62 -80 6 c-75 5 -80 4 -76
-14 3 -17 11 -19 80 -16 l77 4 -1 -76 c-1 -47 -5 -76 -12 -77 -6 -1 -46 -1
-89 1 -77 2 -78 1 -65 -19 11 -18 23 -21 90 -21 76 0 78 -1 78 -24 0 -13 3
-32 6 -40 6 -15 -70 -16 -877 -14 l-884 3 0 45 0 45 90 5 c54 3 83 8 72 13
-28 11 -155 9 -178 -3 -11 -6 -19 -7 -19 -1 0 5 6 11 14 14 9 4 14 28 15 81 2
70 0 76 -19 76 -18 0 -20 -6 -20 -67 0 -38 -4 -73 -8 -79 -5 -8 -30 -8 -87 -1
-44 6 -82 11 -84 13 -10 8 -9 119 2 126 7 4 46 8 88 8 61 0 78 3 83 16 4 10
14 14 26 11 19 -5 20 0 20 74 l0 79 58 1 c92 3 95 3 99 17 4 9 -16 12 -76 12
-74 0 -81 2 -81 20 0 13 -7 20 -20 20 -13 0 -20 -7 -20 -20 0 -19 -7 -20 -91
-20 -82 0 -91 2 -96 20 -5 19 -14 20 -133 20 -120 0 -128 -1 -133 -21 -5 -18
-12 -20 -59 -17 -44 2 -53 6 -50 21 4 26 -31 22 -43 -5 -9 -21 -17 -23 -85
-24 -78 -1 -103 8 -93 32 3 9 -1 14 -12 14 -11 0 -15 -5 -11 -15 8 -23 -28
-33 -114 -31 -70 1 -75 3 -78 24 -5 30 -32 29 -32 -2 0 -14 5 -28 10 -31 8 -5
8 -11 0 -20 -13 -16 -9 -125 5 -125 6 0 11 29 13 65 2 42 7 65 15 66 26 3 153
-2 167 -6 11 -4 15 -20 15 -67 l0 -63 -89 -5 c-63 -3 -91 -9 -94 -18 -3 -11
15 -13 97 -10 87 3 100 1 94 -12 -3 -8 -6 -42 -6 -75 l1 -60 -91 0 c-63 0 -92
-4 -95 -12 -3 -10 20 -13 92 -13 l96 0 -3 -57 -3 -58 -69 -3 c-104 -5 -111 -1
-119 56 -4 30 -14 56 -26 67 -33 30 -180 34 -180 5 0 -5 37 -10 83 -12 l82 -3
0 -55 0 -55 -80 0 -80 0 -5 52 c-9 83 -32 88 -36 6 -2 -25 -9 -50 -16 -54 -16
-11 -155 -12 -162 -1 -2 4 -6 30 -7 57 l-3 50 91 5 c50 3 94 8 98 12 12 12
-65 21 -125 14 -67 -8 -66 -9 -69 87 l-2 57 91 0 c69 0 91 3 88 13 -3 8 -34
14 -89 17 l-84 5 -2 68 c-2 47 1 67 10 68 6 0 49 1 95 1 77 1 82 2 82 23 0 11
5 26 12 33 9 9 7 12 -10 12 -14 0 -20 -5 -16 -14 9 -23 -14 -29 -100 -27 l-81
2 -13 -31 c-8 -17 -12 -54 -10 -86 l3 -55 -95 3 -95 3 -3 67 -3 67 87 3 c59 2
89 7 92 16 3 9 -19 12 -87 12 -84 0 -91 1 -91 20 0 13 -7 20 -20 20 -13 0 -20
-7 -20 -20 0 -18 -7 -20 -74 -20 -83 0 -106 6 -106 26 0 8 -8 14 -19 14 -12 0
-18 -7 -17 -17 1 -15 -9 -19 -53 -21 -68 -4 -101 4 -101 23 0 13 -22 15 -130
15 l-130 0 0 -40 c0 -29 -4 -40 -15 -40 -11 0 -15 11 -15 40 0 42 -14 54 -23
20 -5 -20 -37 -29 -37 -10 0 6 -8 10 -17 10 -15 0 -16 2 -3 10 11 7 0 10 -37
10 l-52 0 -6 -47 c-3 -27 -7 -63 -10 -81 -3 -23 0 -32 8 -29 7 2 13 31 15 75
3 64 5 72 22 72 18 0 20 -8 21 -72 1 -40 4 -59 6 -43 7 58 13 75 28 75 16 0
19 -9 15 -49 -1 -14 2 -21 9 -17 6 4 11 14 11 22 0 9 7 14 18 12 14 -3 18 -17
23 -78 5 -65 6 -68 7 -23 2 44 15 75 26 62 2 -2 7 -41 10 -86 7 -81 7 -83 -14
-83 -14 0 -24 8 -27 21 -4 12 -11 18 -20 15 -8 -4 -17 4 -23 20 -9 22 -13 24
-26 13 -14 -12 -14 -14 0 -25 16 -11 23 -44 10 -44 -4 0 -22 16 -41 35 -33 34
-44 39 -70 36 -16 -2 -17 16 -2 21 6 2 1 12 -10 22 -12 11 -21 14 -21 8 0 -7
-7 -12 -15 -12 -8 0 -15 4 -15 10 0 5 -15 17 -32 26 -18 10 -27 19 -20 21 6 3
12 9 12 15 0 6 -6 5 -15 -2 -13 -11 -20 -9 -38 9 -13 11 -28 21 -35 21 -6 0
-17 9 -25 21 -8 11 -31 29 -51 40 -35 19 -74 19 -1617 19 l-1580 0 4 -1507z
m5375 1432 c9 -4 12 -23 10 -67 l-3 -63 -85 0 -85 0 -2 60 c-1 33 0 65 2 70 3
10 132 9 163 0z m-1288 -65 l0 -71 -72 3 -73 3 -3 68 -3 67 76 0 75 0 0 -70z
m210 0 l0 -71 -82 3 -83 3 -3 68 -3 67 86 0 85 0 0 -70z m1692 4 c1 -36 1 -70
-2 -74 -3 -4 -45 -5 -95 -1 l-90 6 -3 54 c-5 81 -5 81 97 81 l89 0 4 -66z
m2018 -17 c3 -38 3 -70 0 -72 -3 -2 -46 -5 -95 -6 l-90 -3 -1 69 c-1 39 1 74
3 78 3 4 44 6 91 5 l87 -3 5 -68z m212 49 c10 -15 10 -98 -1 -114 -5 -9 -30
-12 -86 -10 l-78 3 0 68 c1 37 2 70 2 73 2 10 156 -8 163 -20z m420 14 c2 -5
1 -37 0 -70 l-4 -60 -68 0 c-42 0 -72 5 -76 12 -8 12 -6 106 2 120 7 12 142
10 146 -2z m210 -60 c-2 -36 -6 -68 -9 -72 -2 -5 -37 -8 -78 -8 -84 0 -85 1
-80 90 1 30 3 56 4 58 0 2 38 2 84 0 l82 -3 -3 -65z m432 4 c-1 -36 -6 -70
-12 -76 -8 -8 -79 -12 -149 -9 -9 1 -13 23 -13 76 l0 75 88 0 87 0 -1 -66z
m221 -6 l-3 -73 -93 0 -94 0 3 45 c2 25 -1 57 -7 73 l-11 27 104 0 103 0 -2
-72z m200 -3 l0 -70 -82 -3 -83 -3 0 69 c0 38 3 72 7 76 4 4 41 5 83 4 l75 -3
0 -70z m223 3 c3 -79 0 -81 -108 -76 l-65 3 -3 73 -3 73 88 -3 88 -3 3 -67z
m-5838 -152 l0 -64 -66 -4 c-36 -1 -69 1 -75 7 -10 10 -13 108 -2 118 3 4 37
7 75 7 l68 0 0 -64z m215 15 c11 -83 7 -87 -81 -84 -42 1 -78 4 -79 5 -3 3 -8
108 -6 121 0 4 37 7 80 7 l79 0 7 -49z m223 -26 c-2 -59 0 -75 11 -75 10 0 11
-3 3 -13 -6 -7 -12 -37 -14 -67 l-3 -55 -68 -3 c-82 -4 -101 6 -103 50 -2 19
-4 40 -6 48 -2 12 16 16 92 20 82 4 92 7 73 18 -12 6 -51 12 -87 12 -52 0 -67
4 -74 18 -5 9 -7 23 -5 30 3 7 0 26 -6 43 -6 17 -8 35 -5 40 3 5 48 9 100 9
l96 0 -4 -75z m860 3 l3 -68 -86 0 -85 0 0 70 0 71 83 -3 82 -3 3 -67z m155
55 c12 -7 8 -98 -5 -111 -7 -7 -29 -12 -50 -12 -32 0 -40 4 -48 26 -14 36 -12
101 3 108 12 5 86 -3 100 -11z m3307 -50 c0 -32 3 -69 5 -83 3 -14 3 -19 -1
-12 -4 8 -30 12 -77 12 -40 0 -78 4 -85 8 -19 12 -13 110 7 122 9 5 46 10 84
10 l67 0 0 -57z m428 -16 l-3 -62 -85 0 -85 0 4 60 c2 33 7 62 11 65 4 3 42 4
84 2 l77 -4 -3 -61z m137 63 l83 0 4 -56 c2 -34 -2 -59 -9 -65 -6 -6 -49 -9
-95 -7 l-83 3 0 45 c0 25 -4 56 -9 69 -7 20 -6 23 9 18 9 -4 54 -7 100 -7z
m-1439 -10 l34 0 0 -69 0 -69 -87 -4 c-49 -2 -91 -3 -95 -1 -5 2 -8 38 -8 80
l0 76 61 -7 c34 -3 77 -6 95 -6z m662 -51 c3 -66 0 -68 -93 -60 -60 6 -60 6
-63 40 -2 19 -1 45 3 58 5 23 9 24 78 21 l72 -3 3 -56z m1067 -4 l0 -60 -80 0
-80 0 -3 49 c-5 76 -3 77 85 74 l78 -3 0 -60z m211 55 c5 -5 7 -33 4 -62 l-5
-53 -80 0 -80 0 -3 49 c-5 74 -3 76 81 76 40 0 77 -4 83 -10z m-1699 -12 c12
-15 9 -106 -3 -118 -11 -10 -136 -16 -150 -7 -6 3 -9 25 -8 49 1 24 2 53 3 66
1 21 5 22 75 22 47 0 77 -5 83 -12z m1083 -128 c0 -5 -4 -10 -10 -10 -5 0 -10
-25 -10 -55 0 -50 -2 -55 -24 -61 -14 -3 -53 -3 -88 0 -84 8 -92 8 -170 0 -37
-3 -78 -4 -91 0 -22 5 -24 9 -19 58 2 29 7 56 11 59 3 3 42 3 86 0 l80 -6 0
-40 c0 -33 3 -40 20 -40 16 0 19 6 17 30 -4 50 7 57 91 56 42 0 79 4 82 9 8
13 25 13 25 0z m-5210 -55 l0 -56 -72 3 -73 3 -3 39 c-5 62 -1 66 78 66 l70 0
0 -55z m215 -5 l0 -55 -60 -3 c-96 -5 -105 0 -105 57 0 26 3 51 7 55 4 4 41 5
83 4 l75 -3 0 -55z m1054 54 c30 -6 31 -8 31 -61 l0 -54 -82 3 -83 3 -3 44
c-2 24 -1 50 2 57 6 15 78 19 135 8z m3267 -15 c8 -6 14 -30 14 -54 0 -51 -14
-57 -102 -48 l-58 6 0 41 c0 23 4 46 10 52 14 14 119 17 136 3z m224 -43 c0
-62 -5 -66 -85 -66 -79 0 -85 5 -85 59 0 26 3 51 7 54 3 4 42 7 85 7 l78 0 0
-54z m636 46 c14 -9 14 -94 -1 -104 -5 -4 -41 -8 -80 -8 -38 0 -75 4 -80 8 -6
4 -9 30 -7 60 l4 52 76 0 c43 0 82 -4 88 -8z m211 -4 c4 -7 8 -33 8 -58 l0
-45 -65 -3 c-99 -5 -107 -1 -104 53 1 24 5 49 9 55 9 15 141 13 152 -2z
m-3709 -50 l3 -48 -90 0 c-90 0 -91 0 -91 24 0 13 -3 31 -6 40 -9 22 22 31
108 31 l73 0 3 -47z m3930 0 c3 -56 -7 -61 -103 -56 l-60 3 -3 53 -3 53 83 -3
83 -3 3 -47z m-1913 22 c6 -5 10 -22 10 -37 l-2 -28 -88 -3 c-97 -3 -125 2
-107 20 6 6 8 17 5 24 -12 33 3 39 88 36 46 -2 89 -8 94 -12z m-841 -296 c93
-24 278 -138 306 -189 5 -11 24 -38 40 -60 43 -59 88 -173 100 -253 41 -290
-158 -582 -447 -657 -71 -19 -222 -19 -288 -1 -238 65 -413 257 -451 496 -13
83 -13 101 1 178 39 208 178 377 382 462 116 49 227 56 357 24z m-6894 -944
c30 -5 66 -11 80 -12 24 -3 25 -6 37 -133 11 -120 26 -306 38 -482 3 -51 1
-72 -8 -75 -6 -2 -68 -1 -137 2 l-125 5 -7 100 c-3 55 -9 188 -12 295 -4 107
-8 223 -11 258 l-4 63 47 -6 c26 -3 72 -10 102 -15z m13912 -227 c-7 -120 -12
-273 -12 -340 0 -86 -4 -124 -12 -129 -7 -5 -77 -10 -155 -12 l-143 -3 0 38
c0 21 4 85 10 143 6 58 15 166 21 240 5 74 13 162 17 195 l7 59 95 14 c52 7
111 16 130 21 19 4 39 4 44 -1 6 -4 5 -93 -2 -225z m-13492 166 l87 -11 12
-132 c25 -265 29 -313 33 -411 l3 -100 -85 -3 c-47 -2 -99 -1 -116 3 l-31 5
-7 123 c-3 67 -9 215 -13 330 -6 197 -5 207 12 207 10 0 58 -5 105 -11z
m13020 -198 c0 -162 -14 -450 -23 -457 -8 -6 -234 -12 -243 -6 -14 8 7 337 31
511 8 56 13 107 10 111 -7 11 109 37 173 39 l52 1 0 -199z m-12635 138 c5 -5
21 -9 36 -9 l27 0 5 -117 c3 -65 11 -166 17 -224 6 -59 10 -142 8 -185 l-3
-78 -90 3 c-49 1 -94 6 -98 10 -4 4 -9 43 -11 87 -4 72 -9 509 -7 526 1 9 104
-2 116 -13z m12222 -289 c-4 -214 -9 -305 -17 -315 -17 -20 -205 -22 -213 -2
-3 7 -1 49 4 92 4 44 8 118 8 165 1 47 8 123 16 170 8 47 15 99 15 117 0 39
21 53 82 54 24 0 52 4 63 9 50 21 48 31 42 -290z m-11952 250 c3 -5 29 -10 56
-10 33 0 48 -4 44 -11 -4 -6 -27 -9 -52 -7 -35 2 -48 -1 -57 -15 -13 -22 6
-37 36 -29 15 3 19 0 16 -13 -5 -30 21 -29 33 2 l12 28 9 -35 c20 -79 26 -121
33 -241 3 -70 10 -152 14 -183 7 -50 5 -58 -10 -67 -22 -11 -148 -4 -162 10
-5 5 -10 134 -12 295 -2 270 -1 286 16 286 10 0 21 -4 24 -10z m11591 -47 c-3
-21 -6 -152 -6 -290 l0 -253 -99 0 c-63 0 -101 4 -103 11 -2 6 0 50 4 97 4 48
12 150 18 227 7 104 13 143 25 151 8 6 12 14 8 17 -3 4 -8 18 -9 32 -2 21 2
25 22 25 24 0 32 -14 14 -25 -18 -11 -11 -35 10 -35 11 0 20 -4 20 -10 0 -5 5
-10 10 -10 6 0 10 6 10 14 0 7 7 19 15 26 12 10 18 10 30 0 13 -10 15 -9 15 8
0 26 -14 35 -51 34 -16 0 -29 4 -29 9 0 5 23 9 51 9 l52 0 -7 -37z m-11260 -3
c22 0 33 -4 29 -10 -4 -6 -21 -8 -41 -4 -40 7 -50 -8 -34 -50 6 -18 15 -26 24
-23 8 3 21 -5 30 -19 21 -31 32 -30 40 2 4 15 9 25 11 22 8 -8 37 -437 31
-454 -5 -14 -16 -16 -72 -11 -36 2 -71 10 -77 16 -12 12 -23 514 -11 532 3 6
13 8 21 5 8 -3 30 -6 49 -6z m10937 -192 c-2 -106 -6 -230 -9 -276 l-6 -83
-81 3 c-75 3 -82 5 -80 23 1 11 7 104 13 208 6 103 13 194 16 202 8 19 24 19
24 0 0 -25 19 -17 26 10 4 14 9 24 11 21 3 -3 18 1 34 10 34 17 38 44 9 51
-31 8 -23 23 13 23 l32 0 -2 -192z m-685 -146 l2 -232 -50 0 -51 0 6 33 c3 17
9 97 15 176 5 79 12 146 14 149 3 2 8 -14 12 -37 9 -56 22 -40 33 39 9 73 6
90 -18 90 -14 0 -14 2 -1 10 8 5 20 8 25 7 6 -2 11 -92 13 -235z m-200 -14
l-3 -223 -52 -3 c-46 -3 -53 -1 -53 15 1 52 19 204 29 241 12 43 31 49 31 9 0
-16 3 -18 12 -9 7 7 14 51 16 102 3 49 8 90 13 90 6 0 8 -96 7 -222z m-9003
142 c2 -30 6 -123 10 -206 7 -165 7 -164 -52 -164 l-25 0 6 188 c3 103 5 200
5 215 1 25 4 28 27 25 24 -3 26 -7 29 -58z m8796 -42 c2 -57 2 -152 -1 -213
l-5 -110 -35 0 -35 0 3 180 c4 236 5 245 41 245 l29 0 3 -102z m-8520 71 c7
-11 29 -289 29 -361 l0 -48 -45 0 -45 0 0 216 0 216 27 -7 c15 -3 31 -11 34
-16z m-701 -46 c14 -45 30 -48 30 -6 0 15 3 24 6 20 8 -7 43 -268 44 -319 l0
-38 -50 0 -50 0 0 108 c0 60 -3 151 -6 203 -7 99 2 109 26 32z m8894 36 c-3
-6 -3 -17 0 -26 5 -12 9 -13 20 -4 25 21 30 -8 34 -190 4 -174 4 -176 -18
-182 -12 -3 -37 -3 -55 0 -33 5 -34 7 -30 47 2 22 10 113 16 201 12 166 14
179 30 169 5 -3 7 -10 3 -15z m-8705 -51 c1 -35 12 -35 32 -2 16 27 17 26 27
-57 6 -46 15 -124 20 -172 9 -101 4 -110 -55 -105 l-38 3 -9 121 c-9 129 0
295 15 259 4 -11 8 -32 8 -47z m671 -48 c21 -185 27 -295 16 -303 -6 -4 -24
-6 -41 -5 l-30 3 -7 150 c-7 160 -1 222 23 217 9 -1 8 2 -3 11 -24 19 -23 25
6 23 23 -1 25 -6 36 -96z m7894 44 c3 -26 6 -116 6 -200 l0 -154 -34 0 c-19 0
-37 3 -40 8 -2 4 -1 76 4 160 5 113 12 158 24 176 9 14 16 32 16 41 0 35 18
11 24 -31z m-7779 15 c1 -8 7 -25 15 -39 14 -24 32 -299 22 -327 -5 -16 -13
-16 -46 -3 l-26 10 0 167 c0 93 3 178 6 191 7 24 29 25 29 1z m7625 -7 c0 -9
3 -90 6 -180 7 -179 3 -192 -48 -192 l-30 0 4 163 c3 139 6 167 21 181 9 10
14 22 11 28 -7 11 16 29 27 22 4 -2 8 -12 9 -22z m-7468 -33 c4 -19 10 -103
14 -186 l7 -153 -32 0 -31 0 -2 118 c-2 134 2 243 9 255 10 17 28 -1 35 -34z
m7326 -157 l5 -179 -32 -5 c-52 -8 -55 5 -42 157 6 74 17 148 23 163 11 26 14
36 17 57 0 5 6 4 13 -3 7 -7 13 -74 16 -190z m-7211 142 c10 -55 24 -230 21
-276 -3 -49 -5 -53 -28 -53 l-25 0 -3 135 c-3 149 4 223 20 218 6 -2 13 -13
15 -24z m1031 -44 c2 -65 5 -63 -67 -60 -48 2 -64 -11 -54 -47 3 -13 1 -23 -3
-24 -5 0 -38 -1 -74 -2 l-65 -2 -5 98 -5 97 136 0 135 0 2 -60z m352 0 l0 -61
-127 3 -128 3 0 57 0 58 128 0 127 0 0 -60z m362 8 c3 -29 3 -56 1 -60 -2 -5
-62 -8 -134 -8 l-129 0 0 60 0 60 129 0 129 0 4 -52z m270 -28 c0 -44 1 -86 2
-92 1 -7 -10 -13 -24 -13 -19 0 -25 5 -26 23 -2 33 -13 40 -69 44 l-50 3 -2
58 -1 57 84 0 84 0 2 -80z m3878 65 c5 -3 10 -28 10 -55 0 -45 -2 -49 -27 -53
-24 -4 -184 -3 -220 2 -9 0 -13 19 -13 54 0 30 2 56 4 58 7 7 234 1 246 -6z
m348 0 c9 -4 12 -29 10 -97 l-3 -93 -50 0 -50 0 0 35 0 35 -70 5 -70 5 -3 49
c-2 27 -1 54 1 60 4 11 203 11 235 1z m691 -36 c3 -24 6 -100 6 -169 l-1 -125
-29 0 -29 0 3 105 c1 58 7 125 12 150 6 25 10 55 10 68 -1 41 22 18 28 -29z
m-1744 -5 c8 -54 -1 -68 -47 -68 -30 -1 -34 -4 -38 -35 -6 -43 -40 -57 -108
-44 l-47 8 -3 79 c-2 44 -1 85 2 93 4 10 33 13 120 13 l114 0 7 -46z m365 -4
c0 -64 -8 -67 -152 -62 l-108 4 0 54 0 54 130 0 130 0 0 -50z m1512 -2 c3 -24
4 -97 2 -163 l-3 -120 -27 0 -28 0 2 100 c3 103 11 204 19 218 12 21 31 3 35
-35z m-3322 -138 c0 -18 7 -20 60 -20 l60 0 0 -59 c0 -104 -33 -151 -96 -135
-37 10 -28 24 15 24 44 0 48 5 57 86 l7 54 -57 0 c-51 0 -56 -2 -56 -22 -1
-36 -35 -102 -65 -126 -41 -32 -50 -16 -10 19 34 30 38 38 50 96 6 31 5 32
-32 35 -49 4 -49 22 0 26 29 3 37 7 37 23 0 10 7 19 15 19 8 0 15 -9 15 -20z
m-1886 -302 c13 -587 26 -1252 26 -1319 l0 -69 -415 0 -415 0 0 23 c0 12 -7
328 -15 702 -8 374 -15 742 -15 818 l0 137 414 0 414 0 6 -292z m4171 -60 c-3
-194 -7 -445 -10 -558 -3 -113 -5 -328 -5 -478 l0 -273 -312 3 c-172 1 -358 4
-412 6 l-99 3 6 627 c4 345 7 716 7 825 l0 197 415 0 415 0 -5 -352z m-5123
293 c11 -11 13 -170 2 -181 -6 -6 -39 -10 -74 -8 l-64 3 -3 89 c-3 48 -2 94 1
102 4 11 19 12 68 8 35 -4 66 -9 70 -13z m4183 -13 c15 -10 9 -169 -7 -179 -7
-4 -28 -7 -48 -5 -19 2 -47 4 -62 5 l-28 1 0 88 c0 49 2 91 4 93 7 7 130 5
141 -3z m1163 -68 c4 -106 -1 -120 -42 -120 -63 0 -66 4 -66 90 0 107 3 112
59 108 l46 -3 3 -75z m-9363 -130 c11 -17 35 -282 35 -380 0 -52 5 -141 12
-197 6 -57 9 -106 5 -110 -10 -9 -247 -35 -263 -29 -10 4 -14 29 -14 93 0 48
-5 129 -11 178 -12 107 -28 437 -22 448 6 11 251 9 258 -3z m409 -54 c3 -34
10 -113 16 -176 5 -63 11 -182 12 -265 l2 -149 -33 -7 c-18 -4 -70 -10 -117
-14 l-84 -7 0 109 c0 59 -5 146 -10 193 -13 118 -24 345 -17 363 5 13 26 16
116 15 l110 -1 5 -61z m341 54 c2 -4 7 -63 10 -131 4 -68 10 -160 16 -204 5
-44 9 -123 9 -177 l0 -97 -32 -5 c-18 -3 -64 -7 -103 -8 l-70 -3 -2 110 c-2
61 -7 154 -13 208 -5 54 -10 146 -10 206 l0 108 95 0 c52 1 97 -2 100 -7z
m322 -96 c16 -140 28 -470 17 -477 -5 -3 -46 -8 -90 -12 l-81 -7 -7 178 c-4
99 -10 231 -15 294 -4 63 -6 118 -5 122 2 3 41 5 87 4 l82 -3 12 -99z m207 96
l53 0 11 -107 c7 -60 15 -183 18 -274 l7 -165 -72 -14 c-39 -7 -74 -10 -79 -6
-4 4 -10 78 -13 164 -4 86 -10 207 -14 269 -8 120 -4 149 21 139 9 -3 39 -6
68 -6z m667 -7 c6 -6 13 -110 16 -247 l6 -237 -49 3 -49 3 -2 75 c-1 41 -7
149 -14 239 -7 109 -8 166 -1 170 16 9 82 5 93 -6z m788 7 c16 0 19 -19 27
-197 10 -215 7 -227 -45 -221 -24 3 -26 7 -32 68 -9 91 -10 345 -2 354 4 3 13
4 21 1 7 -3 22 -5 31 -5z m149 -5 c7 -6 23 -248 20 -315 l-3 -75 -36 -3 -36
-3 -6 198 c-6 208 -4 219 38 207 11 -4 21 -8 23 -9z m136 -57 c10 -97 7 -316
-4 -323 -17 -11 -50 5 -47 23 1 9 -2 93 -6 186 -9 176 -6 189 33 179 13 -4 19
-19 24 -65z m122 16 c3 -25 7 -107 8 -182 l1 -137 -29 0 c-34 0 -32 -12 -36
214 -1 107 1 146 11 151 23 15 38 -1 45 -46z m6899 -129 l0 -180 -30 0 -30 0
0 70 c1 148 9 271 18 283 6 7 17 11 26 10 14 -3 16 -27 16 -183z m130 -6 l0
-184 -33 2 c-18 0 -34 3 -36 5 -1 1 1 79 5 173 7 145 10 171 26 182 9 7 22 12
28 10 6 -2 10 -69 10 -188z m147 5 c-2 -93 -5 -177 -8 -186 -4 -13 -16 -18
-41 -18 l-36 0 7 187 c4 118 10 190 17 194 6 4 23 3 38 0 l26 -7 -3 -170z
m303 176 c3 -5 3 -100 -1 -210 l-7 -201 -41 3 -41 3 1 137 c1 75 5 166 9 202
6 60 8 65 33 69 15 2 30 5 34 6 4 0 10 -3 13 -9z m662 -226 c-3 -123 -8 -228
-11 -233 -6 -9 -96 5 -108 17 -8 8 16 424 25 439 3 5 27 7 53 5 l47 -4 -6
-224z m198 -3 c-4 -124 -8 -232 -10 -238 -5 -16 -77 -17 -92 -2 -7 7 -9 33 -6
67 2 32 8 134 11 227 l7 170 35 5 c64 11 62 20 55 -229z m672 231 c9 -2 11
-30 7 -104 -3 -57 -8 -182 -12 -278 l-7 -175 -65 3 c-36 1 -76 5 -89 8 l-24 5
8 122 c4 67 11 187 14 267 l6 145 45 5 c42 5 88 5 117 2z m335 -2 c3 -3 1 -45
-3 -95 -4 -49 -8 -144 -8 -211 -1 -67 -4 -155 -7 -197 l-7 -77 -37 0 c-20 0
-65 3 -100 7 l-63 6 7 141 c3 78 9 206 12 286 l7 145 98 0 c53 0 99 -2 101 -5z
m352 -25 c-1 -16 -6 -152 -12 -302 -5 -149 -13 -277 -17 -283 -5 -9 -24 -10
-59 -6 -28 4 -77 9 -109 13 l-57 5 5 137 c4 75 10 183 16 240 5 58 9 130 9
161 0 31 3 60 7 64 4 3 54 5 112 4 l106 -3 -1 -30z m401 25 c7 -6 8 -32 3 -77
-4 -37 -11 -180 -17 -317 -7 -181 -13 -253 -23 -262 -11 -10 -25 -10 -78 1
-36 8 -85 14 -110 15 -61 0 -68 9 -59 73 4 28 8 116 8 195 1 128 13 301 26
358 5 21 11 22 122 22 64 1 122 -3 128 -8z m467 -60 c-1 -36 -7 -137 -12 -225
-6 -88 -13 -217 -16 -287 -4 -94 -9 -128 -20 -132 -7 -3 -53 0 -101 5 -49 6
-104 11 -124 10 -60 -1 -66 11 -58 119 4 52 12 200 18 329 7 172 13 236 23
243 7 4 76 7 153 5 l140 -2 -3 -65z m-11558 -2 c3 -35 8 -138 12 -230 l6 -167
-35 -6 c-65 -12 -71 -7 -78 65 -4 36 -7 140 -8 233 l-1 167 49 0 49 0 6 -62z
m172 32 c1 -14 3 -105 5 -204 3 -166 2 -179 -16 -192 -10 -8 -28 -14 -40 -14
-21 0 -22 4 -28 211 -4 116 -4 215 -1 221 3 5 22 8 42 6 30 -3 36 -7 38 -28z
m278 -62 c3 -51 7 -147 8 -212 l3 -120 -34 -8 c-18 -5 -37 -6 -42 -1 -4 4 -9
104 -11 221 l-3 212 36 0 37 0 6 -92z m650 50 c3 -24 6 -104 7 -178 2 -132 2
-135 -19 -138 -20 -3 -22 1 -22 50 0 29 -3 110 -7 181 -6 123 -5 127 14 127
17 0 22 -8 27 -42z m111 -20 c9 -88 2 -291 -10 -295 -27 -8 -32 19 -39 185
l-7 172 25 0 c23 0 25 -4 31 -62z m6454 -103 c-3 -148 -5 -165 -21 -171 -10
-3 -22 -2 -28 1 -11 7 -13 144 -4 258 7 73 8 77 31 77 l24 0 -2 -165z m113 -5
c-2 -91 -8 -169 -12 -173 -4 -5 -16 -7 -26 -5 -18 3 -19 15 -17 162 1 87 4
165 7 173 4 8 16 13 28 11 23 -3 23 -3 20 -168z m534 -22 c-4 -106 -11 -197
-16 -202 -5 -4 -21 -4 -37 1 l-28 10 3 129 c1 71 5 157 8 192 l6 62 35 0 36 0
-7 -192z m339 -15 c-3 -115 -10 -212 -15 -216 -4 -5 -27 -7 -50 -5 l-43 3 2
145 c1 80 4 175 7 213 l7 67 50 0 50 0 -8 -207z m275 -7 c0 -118 -3 -217 -8
-220 -4 -2 -23 -1 -42 3 l-35 7 -3 159 c-2 88 0 184 3 213 l6 52 40 0 39 0 0
-214z m-7267 94 c11 -105 7 -122 -25 -131 -39 -10 -46 4 -48 101 -3 116 -5
112 33 108 l32 -3 8 -75z m221 58 c11 -53 13 -167 3 -177 -9 -9 -145 -17 -148
-8 -5 19 -9 166 -5 183 6 22 11 24 76 24 64 0 70 -2 74 -22z m4174 -96 l3 -93
-76 3 c-41 2 -75 6 -75 11 0 4 0 45 0 92 l0 86 73 -3 72 -3 3 -93z m1156 81
c-1 -7 -2 -49 -2 -93 l-2 -80 -55 0 -55 0 0 88 c0 49 3 92 7 96 13 12 108 2
107 -11z m-5558 -241 c13 -8 23 -170 12 -187 -3 -5 -21 -10 -40 -10 l-33 0 -3
89 c-2 49 -1 95 2 103 6 14 44 17 62 5z m228 2 c13 -5 16 -24 16 -100 l0 -95
-77 3 -78 3 -3 84 c-2 46 -1 90 2 98 6 14 109 19 140 7z m2917 -11 c0 -4 -24
-13 -53 -18 -43 -8 -53 -14 -53 -30 0 -18 8 -20 68 -23 37 -2 67 -7 67 -12 0
-5 -30 -10 -67 -12 -66 -3 -68 -4 -71 -30 l-3 -28 75 0 c61 0 76 -3 76 -15 0
-12 -15 -15 -74 -15 l-75 0 -3 -47 c-3 -46 -4 -48 -35 -51 -25 -2 -33 1 -33
12 0 10 9 16 25 16 22 0 25 4 25 35 l0 35 -75 0 c-60 0 -75 3 -75 15 0 12 15
15 75 15 l75 0 0 30 0 30 -65 0 c-37 0 -65 4 -65 10 0 6 28 10 65 10 61 0 65
1 65 23 0 21 -4 22 -56 19 -91 -6 -89 15 2 23 44 3 102 9 129 14 53 8 57 7 56
-6z m1254 -98 l0 -90 -75 0 -75 0 -1 55 c-1 102 5 118 40 123 17 2 49 4 71 3
l40 -1 0 -90z m1147 0 c-2 -49 -7 -93 -10 -96 -4 -4 -27 -4 -52 0 l-45 6 4 85
c2 47 5 89 8 93 3 4 26 7 51 5 l47 -3 -3 -90z m-5969 -203 c5 -84 6 -159 3
-167 -3 -8 -15 -15 -26 -15 -17 0 -20 6 -20 48 0 27 -3 104 -7 171 l-6 123 24
-4 c24 -3 24 -5 32 -156z m6537 -8 l0 -165 -27 3 -28 3 4 155 c2 85 5 158 8
163 2 4 13 7 24 7 18 0 19 -8 19 -166z m-3310 141 c0 -12 -13 -15 -60 -15
l-60 0 0 -35 0 -35 75 0 c43 0 75 -4 75 -10 0 -6 -58 -10 -155 -10 -97 0 -155
4 -155 10 0 6 30 10 70 10 l70 0 0 35 0 35 -55 0 c-42 0 -55 3 -55 15 0 13 21
15 125 15 104 0 125 -2 125 -15z m-3337 -75 c4 -41 6 -118 5 -170 -3 -79 -6
-95 -19 -98 -15 -3 -18 13 -23 115 -4 65 -8 141 -10 170 -4 56 0 65 24 61 11
-2 17 -23 23 -78z m6759 -89 c-2 -171 -7 -190 -44 -170 -16 9 -18 25 -18 152
0 173 4 189 39 185 l26 -3 -3 -164z m-6868 96 c5 -43 10 -254 7 -293 -1 -14
-35 -24 -49 -15 -17 10 -18 351 -1 361 23 15 37 -2 43 -53z m7003 51 c5 -7 8
-26 7 -43 -1 -16 -3 -89 -4 -162 -2 -142 -8 -160 -50 -145 -23 8 -23 10 -21
171 1 89 5 169 8 177 6 17 47 18 60 2z m-7141 -20 c13 -21 35 -347 25 -360 -4
-4 -18 -9 -31 -10 l-25 -3 -3 180 c-1 98 0 185 2 192 7 16 23 17 32 1z m7278
3 c3 -5 3 -90 -1 -190 l-6 -181 -26 0 c-53 0 -54 4 -49 187 3 94 8 175 12 181
8 14 62 16 70 3z m-7390 -94 c4 -40 7 -126 9 -191 l2 -119 -30 -8 c-16 -5 -32
-5 -36 -1 -4 4 -9 92 -12 195 -4 185 -4 189 17 196 36 14 44 2 50 -72z m7534
-108 c2 -158 0 -188 -13 -199 -12 -10 -21 -10 -41 -1 l-26 12 7 182 c4 100 9
186 12 190 3 5 17 7 31 5 l27 -3 3 -186z m162 -40 c0 -222 0 -222 -64 -195
-34 14 -36 16 -31 58 2 24 7 110 10 192 3 95 9 153 17 157 6 4 24 2 39 -3 l29
-10 0 -199z m-7825 139 c3 -35 5 -126 3 -203 l-3 -140 -37 -3 -38 -3 0 99 c0
54 -3 147 -7 205 l-6 107 41 0 40 0 7 -62z m-168 40 c9 -16 23 -400 14 -409
-3 -4 -20 -10 -37 -13 l-31 -7 -8 210 c-4 115 -4 214 0 220 9 15 52 14 62 -1z
m1433 -88 l0 -100 -70 0 -70 0 -1 48 c-1 26 -2 71 -4 100 l-2 52 74 0 73 0 0
-100z m6732 -110 c-2 -113 -7 -209 -12 -214 -6 -6 -26 -4 -51 3 l-41 12 4 192
c2 106 7 198 12 205 5 8 23 12 49 10 l42 -3 -3 -205z m-2572 94 l0 -84 -80 0
-81 0 3 88 3 87 65 5 c36 3 71 1 78 -4 8 -6 12 -37 12 -92z m1135 11 l0 -90
-52 -3 -53 -3 0 80 c0 108 2 113 59 109 l46 -3 0 -90z m1709 -118 c-1 -114 -4
-210 -7 -213 -3 -3 -21 -1 -41 6 -27 8 -36 18 -41 42 -7 31 0 238 11 331 l6
48 37 -3 36 -3 -1 -208z m-8701 96 c17 -269 9 -323 -49 -323 -18 0 -24 5 -24
23 0 12 -5 101 -12 198 -6 97 -8 184 -5 193 4 11 19 16 45 16 l39 0 6 -107z
m8905 89 c10 -7 11 -55 6 -231 -4 -122 -10 -223 -13 -225 -3 -2 -29 3 -56 12
-42 14 -50 21 -50 42 0 69 17 396 22 402 6 11 75 10 91 0z m-9076 -219 c3
-149 1 -222 -6 -229 -15 -17 -73 -27 -80 -15 -9 13 -29 429 -22 447 4 9 21 14
55 14 l49 0 4 -217z m-211 185 c0 -7 2 -22 4 -33 8 -40 27 -406 22 -419 -7
-18 -76 -41 -87 -30 -4 5 -10 115 -12 244 l-3 235 30 6 c45 10 45 10 46 -3z
m9487 -223 c-3 -129 -7 -238 -10 -241 -4 -3 -26 -2 -50 3 l-43 9 3 179 c1 99
5 204 9 233 l5 52 45 0 46 0 -5 -235z m654 123 c16 -8 17 -24 12 -181 -2 -94
-7 -214 -10 -266 l-6 -93 -32 6 c-17 3 -53 12 -81 19 l-50 14 -3 59 c-4 55 11
307 24 416 l6 48 61 -7 c34 -3 70 -10 79 -15z m-10743 3 c9 -6 15 -50 21 -157
12 -213 15 -348 7 -360 -10 -18 -126 -49 -138 -37 -6 6 -11 111 -12 274 l-2
264 50 11 c28 7 52 12 55 13 3 0 11 -3 19 -8z m11024 -31 l60 0 -7 -172 c-10
-290 -18 -403 -27 -412 -5 -6 -24 -5 -49 2 -22 7 -58 17 -79 23 -21 6 -43 14
-48 18 -11 7 10 521 21 540 6 8 19 11 38 7 17 -3 58 -6 91 -6z m-11272 -125
c4 -66 8 -191 10 -279 3 -177 6 -169 -73 -186 -24 -5 -55 -12 -69 -15 l-25 -7
-13 169 c-7 92 -14 227 -14 298 l-2 130 45 6 c25 4 65 6 90 5 l45 -1 6 -120z
m11647 79 l32 -6 0 -103 c0 -56 -4 -148 -10 -206 -5 -57 -11 -147 -12 -199
l-3 -95 -29 -3 c-16 -2 -32 1 -35 6 -3 5 -40 13 -81 18 l-75 9 1 45 c3 167 22
529 29 540 8 13 105 10 183 -6z m-11963 -11 c3 -10 10 -112 15 -228 5 -115 12
-240 16 -276 4 -41 3 -69 -3 -72 -15 -9 -122 -39 -160 -44 -27 -4 -33 -2 -33
13 0 11 -7 91 -15 179 -15 174 -21 397 -11 414 4 6 26 11 49 12 23 1 53 5 67
9 42 13 68 11 75 -7z m3244 -17 c8 -9 11 -45 9 -97 l-3 -84 -58 -8 c-81 -11
-87 -5 -87 103 0 47 3 90 7 93 13 13 120 7 132 -7z m5291 -97 l0 -100 -47 3
-48 3 -3 92 -3 92 43 4 c24 2 46 4 51 5 4 1 7 -43 7 -99z m3769 79 l93 -12 -6
-110 c-3 -61 -10 -205 -15 -320 -9 -214 -14 -234 -51 -220 -8 3 -42 12 -75 20
-33 8 -77 19 -99 25 l-38 11 6 191 c7 231 15 384 22 416 4 20 9 23 37 17 17
-4 74 -12 126 -18z m-4904 -83 l0 -90 -75 0 -75 0 -3 93 -3 93 78 -3 77 -3 1
-90z m-7733 -45 c18 -288 23 -502 13 -510 -5 -4 -26 -10 -45 -13 -19 -3 -53
-10 -75 -17 -77 -22 -87 -23 -96 -9 -5 8 -9 68 -9 134 0 66 -4 156 -10 200 -5
44 -11 132 -13 196 l-4 116 96 15 c147 24 135 34 143 -112z m13058 70 c140
-19 130 -14 130 -68 0 -26 -4 -83 -9 -127 -5 -44 -12 -152 -16 -240 -7 -191
-14 -251 -29 -264 -8 -7 -25 -5 -51 4 -22 8 -54 14 -72 15 -45 0 -137 22 -146
34 -4 6 -5 54 -1 106 3 52 9 196 13 319 9 242 10 246 66 237 17 -3 68 -10 115
-16z m-13459 -35 c4 -17 7 -103 8 -192 0 -89 5 -195 11 -235 5 -40 10 -104 12
-142 l3 -69 -95 -25 c-130 -33 -159 -37 -165 -21 -2 8 -10 109 -16 224 -6 116
-14 262 -18 325 -4 63 -5 120 -3 126 2 6 31 14 65 18 34 4 85 11 112 15 71 12
79 10 86 -24z m9834 14 c4 -6 4 -80 0 -165 -7 -151 -8 -155 -29 -152 -20 3
-21 8 -22 153 -1 83 1 156 4 163 5 15 38 16 47 1z m113 -188 c1 -91 -1 -168
-6 -173 -5 -5 -16 -6 -25 -2 -15 5 -17 26 -17 168 0 90 3 166 7 170 4 4 14 5
23 4 13 -3 15 -29 18 -167z m-6735 137 c3 -13 7 -87 8 -166 2 -146 -4 -171
-35 -159 -14 5 -16 31 -16 177 0 160 1 170 19 170 11 0 21 -9 24 -22z m6857 2
c13 -8 14 -37 12 -187 -2 -98 -5 -180 -8 -182 -2 -2 -17 2 -35 9 l-31 13 6
141 c10 217 15 232 56 206z m-6956 -56 c3 -26 6 -107 6 -180 0 -124 -1 -133
-20 -139 -11 -3 -23 -4 -28 -1 -4 2 -9 49 -10 103 -1 54 -5 130 -8 170 -7 80
-3 93 30 93 20 0 24 -6 30 -46z m7090 13 c16 -12 17 -27 10 -190 -7 -173 -7
-177 -29 -177 -46 0 -52 17 -44 120 4 52 8 132 8 178 1 72 3 82 19 82 10 0 26
-6 36 -13z m-7219 -40 c2 -18 6 -98 7 -179 3 -142 2 -147 -19 -157 -11 -5 -24
-7 -27 -4 -3 4 -6 88 -6 189 0 137 3 183 13 187 19 7 26 -1 32 -36z m7360 -3
c14 -14 16 -41 14 -190 -1 -95 -5 -178 -9 -184 -5 -9 -16 -7 -40 5 l-32 17 6
66 c3 37 6 117 7 177 1 61 4 113 6 118 7 12 31 8 48 -9z m-7488 -6 c5 -7 11
-95 12 -195 l3 -182 -27 -7 c-14 -3 -28 -5 -30 -3 -2 2 -9 85 -15 184 -12 179
-12 180 10 197 26 21 34 22 47 6z m1140 -114 l5 -91 -39 -6 c-57 -10 -101 -8
-108 4 -8 12 -15 170 -8 182 3 4 36 7 75 5 l71 -3 4 -91z m5273 -9 l0 -95 -32
0 c-72 0 -73 2 -69 93 2 46 8 85 15 89 6 4 28 8 49 8 l37 0 0 -95z m1244 80
c13 -14 14 -42 9 -198 -3 -100 -9 -186 -14 -191 -4 -5 -23 -2 -43 8 l-36 17 0
98 c0 54 3 139 6 189 l7 92 28 0 c15 0 34 -7 43 -15z m-7795 -4 c11 -7 15 -51
19 -197 l5 -189 -31 -11 c-22 -8 -33 -9 -41 -1 -17 17 -15 394 2 400 19 8 31
7 46 -2z m5409 -78 l-3 -88 -65 -3 c-36 -1 -70 1 -75 5 -7 5 -9 40 -7 91 l4
82 74 0 75 0 -3 -87z m2531 46 l31 -11 0 -203 c0 -116 -4 -206 -9 -210 -13 -7
-88 23 -93 38 -3 9 17 381 21 395 2 5 19 2 50 -9z m-8081 -111 c2 -57 5 -146
8 -199 4 -104 1 -112 -47 -124 l-27 -7 -4 204 c-5 218 -3 228 47 228 19 0 21
-6 23 -102z m8380 84 c10 -7 11 -51 6 -210 -8 -220 -6 -217 -66 -186 l-31 16
7 136 c4 75 9 162 13 194 5 54 7 58 32 58 14 0 32 -4 39 -8z m-8649 -207 c2
-194 1 -205 -16 -205 -11 0 -24 -5 -31 -12 -8 -8 -15 -8 -21 -2 -5 5 -12 100
-15 211 -8 222 -12 209 55 212 l26 1 2 -205z m8821 175 c43 -1 45 -8 41 -237
-1 -120 -4 -220 -7 -222 -2 -2 -27 5 -56 16 l-52 20 2 164 c2 90 5 188 8 217
6 49 9 53 28 48 11 -3 28 -6 36 -6z m-8999 -176 c4 -87 8 -181 10 -207 3 -42
0 -51 -26 -72 -15 -14 -36 -25 -45 -25 -22 0 -27 35 -36 267 l-7 182 29 6 c16
4 34 8 39 10 26 9 30 -10 36 -161z m9220 116 c18 0 19 -12 19 -230 0 -255 0
-254 -63 -230 -17 7 -36 16 -40 20 -5 4 -5 107 -1 230 l7 222 30 -6 c16 -3 38
-6 48 -6z m-9416 -61 c8 -60 22 -379 18 -395 -5 -16 -75 -47 -83 -37 -4 4 -11
110 -15 236 l-6 227 23 9 c47 19 56 14 63 -40z m2058 -36 c4 -2 7 -20 7 -39 0
-39 9 -45 72 -47 41 -2 43 -3 49 -40 3 -22 2 -40 -5 -45 -6 -4 -65 -7 -131 -7
l-120 0 -7 85 c-8 104 0 115 77 104 28 -3 53 -8 58 -11z m1099 -85 c2 -40 2
-76 0 -80 -5 -11 -162 -10 -162 1 0 5 3 23 6 40 6 29 10 31 34 26 14 -3 39 -1
54 5 24 9 26 13 20 44 -8 44 1 59 26 46 15 -8 19 -24 22 -82z m3038 46 c0 -27
5 -37 19 -41 13 -3 17 -11 13 -25 -4 -15 -1 -19 9 -16 8 3 13 13 13 22 -1 9 4
16 12 16 9 0 14 -11 14 -27 0 -16 3 -38 6 -50 6 -23 6 -23 -120 -23 l-126 0 0
83 c0 46 3 87 7 90 3 4 39 7 80 7 l73 0 0 -36z m1138 -51 l-3 -88 -124 -3
-124 -3 7 47 c8 61 12 66 51 58 18 -3 48 -3 65 1 26 6 31 11 30 33 -1 15 -2
30 -1 35 1 4 24 7 51 7 l51 0 -3 -87z m555 55 c5 -15 -3 -287 -9 -306 -3 -10
-9 -10 -24 -2 -17 9 -20 21 -20 83 0 40 3 109 7 155 5 69 9 82 24 82 9 0 19
-6 22 -12z m2137 -54 c66 -12 64 -2 56 -289 -4 -142 -9 -261 -12 -264 -5 -5
-52 10 -121 40 l-43 18 0 63 c0 93 19 410 26 431 5 15 12 18 32 13 15 -3 43
-9 62 -12z m-8727 -91 c11 -164 9 -229 -8 -243 -10 -8 -19 -10 -25 -4 -7 7
-15 256 -11 332 1 6 9 12 19 12 17 0 20 -12 25 -97z m5215 90 c-51 -3 -80 -9
-88 -18 -11 -13 -8 -14 19 -9 17 4 37 2 43 -4 7 -5 22 -6 33 -2 11 4 28 2 37
-3 20 -13 52 9 44 30 -3 7 1 13 8 13 13 0 30 -76 20 -92 -3 -4 -59 -8 -125 -8
l-119 0 0 28 c0 71 3 72 109 70 95 -2 95 -2 19 -5z m262 -12 c0 -24 17 -36 33
-23 7 5 36 8 65 7 54 -3 69 9 30 25 -19 7 -16 9 18 9 46 1 54 -8 54 -65 l0
-35 -122 3 -123 3 3 40 c2 22 6 43 9 48 9 15 33 6 33 -12z m-7351 -249 c14
-276 15 -276 -42 -287 -18 -4 -43 -14 -56 -22 -17 -11 -25 -12 -31 -3 -7 12
-24 308 -25 445 l0 79 55 22 c30 12 62 22 70 21 12 -2 17 -45 29 -255z m3095
248 c2 -3 7 -20 11 -37 l7 -33 -126 0 -126 0 0 24 c0 53 4 55 122 53 60 0 111
-4 112 -7z m188 -13 c4 -8 10 -8 20 0 16 13 145 26 151 16 3 -5 8 -23 12 -40
l7 -33 -132 0 c-117 0 -131 2 -126 16 3 9 9 27 12 40 5 20 11 23 28 18 11 -4
24 -11 28 -17z m5412 -10 c17 -13 18 -26 11 -180 -7 -172 -13 -189 -47 -149
-15 17 -15 20 -9 285 1 60 10 69 45 44z m-6930 -69 c20 -224 12 -300 -27 -285
-20 7 -33 327 -15 339 28 17 37 7 42 -54z m9101 33 c3 -6 25 -13 49 -16 73
-11 69 7 57 -290 -5 -148 -15 -273 -20 -278 -8 -8 -167 45 -182 61 -3 4 0 77
7 162 7 85 13 203 13 263 l1 107 34 0 c19 0 37 -4 41 -9z m-11151 -78 c8 -71
25 -381 26 -446 0 -37 -1 -39 -65 -68 -100 -45 -101 -45 -109 59 -3 48 -9 174
-12 279 -6 160 -4 193 7 197 102 33 135 44 140 45 3 0 9 -29 13 -66z m9123
-116 c1 -190 -2 -201 -46 -177 -20 10 -21 19 -21 154 0 185 4 208 39 204 l26
-3 2 -178z m-7193 131 c11 -66 9 -308 -4 -323 -15 -18 -36 -19 -43 -2 -7 18
-9 336 -2 347 14 23 43 10 49 -22z m7321 -12 c16 -11 18 -26 17 -107 -3 -145
-10 -270 -15 -276 -3 -2 -17 3 -32 13 l-27 18 7 155 c7 144 10 202 14 209 3 6
19 1 36 -12z m2191 6 c5 -5 44 -17 87 -27 l77 -19 0 -141 c0 -119 -18 -444
-25 -453 -3 -4 -127 28 -155 40 -57 24 -54 14 -51 169 1 79 7 176 11 214 5 39
10 102 10 141 0 39 3 74 7 77 9 9 27 9 39 -1z m-9634 -62 c3 -25 7 -108 7
-186 1 -140 1 -141 -24 -154 -14 -7 -28 -11 -31 -7 -3 3 -8 90 -12 192 -4 154
-3 189 9 196 28 18 44 5 51 -41z m-2106 5 c1 -11 7 -74 13 -140 5 -66 11 -187
13 -268 l3 -148 -50 -18 c-100 -36 -115 -43 -115 -54 0 -29 -23 15 -26 50 -8
96 -24 377 -25 458 -2 101 -7 95 91 128 61 20 95 18 96 -8z m9715 -15 c22 -12
23 -40 12 -253 -7 -143 -12 -153 -63 -117 l-31 22 6 116 c11 219 14 242 36
242 11 0 29 -5 40 -10z m-7746 -197 c7 -185 7 -187 -15 -205 -12 -10 -26 -18
-30 -18 -4 0 -10 86 -14 191 -8 199 -5 219 34 219 16 0 18 -18 25 -187z
m10265 129 l65 -18 -1 -95 c-5 -310 -17 -531 -30 -536 -12 -4 -43 6 -191 65
l-43 17 0 70 c0 39 5 111 10 160 5 50 10 151 11 225 1 74 6 140 11 146 7 9 21
8 56 -2 26 -8 76 -22 112 -32z m-2374 1 l37 -18 -6 -194 c-3 -107 -10 -197
-14 -201 -4 -5 -25 3 -47 17 l-38 25 6 76 c3 43 6 124 7 182 2 97 6 130 15
130 2 0 20 -8 40 -17z m-10194 -134 c3 -74 11 -208 17 -299 10 -158 10 -166
-9 -181 -27 -23 -177 -82 -193 -76 -18 7 -25 84 -33 393 l-7 251 49 11 c27 6
72 17 99 25 28 8 55 14 60 13 6 -2 13 -61 17 -137z m2151 89 c4 -18 9 -105 13
-194 l7 -161 -32 -22 c-17 -12 -35 -19 -41 -16 -16 10 -13 412 3 418 31 13 45
6 50 -25z m8336 3 c28 -21 29 -35 18 -256 -4 -80 -11 -141 -17 -143 -5 -2 -23
6 -40 18 l-30 21 0 128 c0 71 3 156 6 190 8 67 19 76 63 42z m-8608 -108 c4
-299 6 -277 -18 -302 -13 -14 -26 -21 -30 -17 -5 4 -12 97 -18 207 -9 184 -9
199 7 199 9 0 20 5 23 10 3 6 13 10 21 10 11 0 14 -21 15 -107z m11099 46 c62
-16 115 -31 116 -32 0 -1 -5 -56 -12 -122 -7 -66 -13 -168 -13 -227 -1 -115
-19 -309 -29 -319 -8 -8 -241 78 -259 95 -9 8 -10 34 -3 106 6 52 14 190 19
307 5 117 12 217 16 223 4 7 17 9 29 6 11 -4 73 -20 136 -37z m-2309 5 l50
-17 -7 -211 c-3 -116 -10 -215 -15 -220 -5 -5 -15 -4 -24 4 -8 7 -29 20 -47
29 l-31 16 2 193 c2 178 5 222 18 222 2 0 27 -7 54 -16z m-11059 -49 c4 -22 7
-78 7 -125 1 -47 8 -171 17 -277 18 -211 17 -216 -37 -228 -16 -4 -29 -11 -29
-16 0 -5 -6 -9 -12 -9 -15 0 -125 -44 -135 -54 -3 -3 -12 -6 -18 -6 -15 0 -36
192 -41 390 -2 85 -6 188 -8 228 l-3 72 41 12 c23 6 73 21 111 34 39 12 77 22
85 21 9 -1 18 -18 22 -42z m2099 -16 c4 -30 8 -123 9 -208 l2 -154 -29 -23
c-35 -29 -58 -27 -59 6 -1 14 -5 109 -9 212 l-7 188 25 9 c14 5 28 15 32 21
14 23 30 1 36 -51z m9178 -26 l24 -15 -6 -142 c-4 -77 -7 -176 -7 -218 0 -89
-7 -94 -68 -56 l-35 21 5 207 c3 114 8 213 12 219 9 13 39 7 75 -16z m-9365
-55 c3 -29 9 -130 12 -224 l7 -170 -42 -22 c-30 -16 -43 -19 -45 -10 -3 7 -7
110 -11 228 l-6 214 23 18 c41 31 55 24 62 -34z m9962 -220 l72 -23 -2 -105
c-4 -158 -18 -393 -25 -407 -4 -8 -30 2 -81 31 l-75 42 3 189 c3 219 10 295
26 295 6 0 43 -10 82 -22z m-10538 -150 c6 -79 13 -190 14 -248 l3 -105 -64
-38 c-35 -21 -67 -35 -72 -30 -4 4 -10 89 -14 188 -3 99 -8 212 -11 252 l-5
72 33 17 c33 17 74 32 94 33 7 1 15 -51 22 -141z m10829 38 l78 -35 3 -63 c5
-85 -20 -478 -30 -484 -4 -3 -21 4 -37 15 -15 11 -50 28 -77 38 l-49 19 0 159
c0 182 14 385 26 385 5 0 43 -15 86 -34z m-11093 -183 c3 -98 9 -219 12 -268
l6 -91 -41 -18 c-22 -11 -41 -22 -41 -25 0 -11 -68 -43 -78 -37 -5 3 -12 74
-16 158 -3 84 -9 206 -12 270 l-7 117 69 34 c108 53 100 64 108 -140z m11454
45 l57 -23 3 -100 c2 -55 0 -187 -3 -292 l-7 -193 -25 0 c-30 0 -179 76 -187
95 -3 8 -1 52 4 97 6 46 10 166 10 267 l0 184 45 -6 c25 -4 71 -17 103 -29z
m-11758 -15 c0 -21 7 -113 20 -275 6 -64 10 -152 10 -196 0 -85 -9 -102 -60
-117 -14 -4 -46 -19 -72 -34 -38 -21 -50 -23 -60 -13 -14 14 -29 545 -16 574
4 9 29 24 55 33 27 8 59 22 73 30 34 19 50 18 50 -2z m12038 -102 c15 -10 61
-31 104 -46 l76 -27 0 -46 c0 -26 -6 -130 -14 -232 -8 -102 -14 -220 -14 -262
0 -93 -1 -93 -97 -41 -38 20 -86 46 -108 58 -28 14 -39 27 -38 40 1 11 7 130
12 265 5 135 12 253 15 263 3 9 8 24 11 32 6 20 21 19 53 -4z m-12366 -192 c3
-85 11 -216 17 -293 6 -76 8 -143 5 -148 -3 -4 -22 -17 -42 -28 -20 -11 -44
-24 -52 -29 -8 -4 -37 -19 -63 -32 -61 -31 -67 -23 -67 91 0 47 -5 139 -11
205 -5 66 -12 159 -14 207 -5 100 -2 107 72 133 27 9 66 25 88 36 22 10 45 17
50 16 6 -2 13 -70 17 -158z m12863 -7 l120 -49 -3 -149 c-2 -131 -7 -203 -27
-444 -3 -30 -9 -58 -13 -62 -5 -5 -42 10 -83 32 -41 22 -98 52 -127 67 l-53
28 6 165 c7 192 25 451 32 463 3 5 10 6 17 3 6 -3 65 -27 131 -54z m-13241
-129 c3 -71 11 -192 16 -269 6 -78 10 -166 10 -196 l0 -54 -102 -52 c-57 -29
-111 -58 -120 -64 -9 -7 -20 -9 -25 -5 -7 8 -14 100 -32 432 -15 268 -21 238
47 259 31 9 80 30 107 45 91 52 92 51 99 -96z m8061 -303 c9 -16 20 -30 25
-30 6 0 10 -8 10 -19 0 -10 7 -24 15 -31 8 -7 15 -23 15 -35 0 -13 7 -25 15
-29 8 -3 15 -13 15 -23 0 -10 9 -24 20 -31 11 -7 20 -17 20 -23 0 -6 13 -28
29 -48 27 -34 61 -93 61 -106 0 -3 -11 -5 -25 -5 -15 0 -29 8 -36 23 -7 12
-32 52 -55 89 -24 37 -44 72 -44 78 0 5 -4 18 -9 28 -5 9 -17 35 -27 57 -9 22
-23 44 -30 48 -8 4 -14 19 -14 33 0 13 -7 27 -15 30 -8 4 -12 10 -9 15 10 17
23 9 39 -21z"/>
<path d="M6914 5759 c3 -17 6 -35 6 -40 0 -16 18 -9 22 8 3 15 4 15 17 0 11
-14 11 -17 0 -21 -98 -27 -132 -42 -177 -76 l-53 -40 -30 35 c-17 19 -35 32
-40 29 -6 -3 -6 -11 1 -19 13 -16 -1 -28 -24 -19 -23 9 -20 -9 7 -34 28 -26
57 -31 37 -7 -18 22 0 37 23 20 17 -13 16 -17 -27 -69 -25 -31 -48 -67 -51
-79 -5 -19 -12 -22 -43 -19 -20 1 -44 -2 -52 -8 -13 -8 -10 -14 18 -36 17 -14
32 -29 32 -34 0 -15 -40 -22 -56 -9 -22 18 -30 2 -10 -20 17 -18 17 -19 -1
-24 -10 -3 2 -5 27 -5 31 0 39 2 25 7 -19 8 -19 8 4 20 20 11 22 18 17 51 -4
28 -2 39 9 44 10 3 15 -1 15 -12 1 -9 11 6 23 35 47 111 172 219 287 249 120
31 266 -3 353 -82 119 -109 162 -205 154 -346 -6 -110 -36 -176 -117 -259 -32
-32 -54 -59 -50 -59 18 0 120 123 146 176 53 109 40 300 -28 389 -41 54 -130
136 -172 157 -52 27 -130 48 -177 48 -40 0 -54 17 -50 58 2 19 -2 22 -35 22
-36 0 -36 -1 -30 -31z"/>
<path d="M6926 5604 c-49 -18 -106 -60 -106 -79 0 -8 -6 -18 -13 -22 -22 -14
-39 -69 -39 -131 0 -47 6 -68 26 -100 14 -23 26 -45 26 -48 0 -4 10 -16 23
-27 72 -64 197 -77 287 -29 100 52 138 137 121 266 -7 51 -13 62 -59 106 -77
73 -176 97 -266 64z m157 -47 c16 -11 17 -31 15 -187 l-3 -174 -44 -9 c-24 -5
-59 -6 -77 -2 l-34 6 0 183 c0 100 3 186 7 189 11 12 119 7 136 -6z"/>
<path d="M6690 5309 c0 -5 11 -34 25 -63 30 -64 121 -154 165 -162 16 -4 30
-9 30 -11 0 -2 -13 -23 -29 -46 -15 -23 -36 -57 -45 -75 l-17 -33 -45 32 c-54
39 -121 126 -145 188 -10 25 -18 37 -18 26 -1 -34 59 -127 119 -186 59 -57
148 -110 184 -108 12 0 -6 10 -39 22 l-60 22 66 3 65 3 15 57 15 57 43 -3 c24
-1 50 3 58 9 20 17 29 2 10 -19 -11 -12 -14 -29 -10 -60 l6 -42 63 0 c35 0 64
3 64 6 0 7 -53 98 -76 131 -15 20 -14 21 17 28 43 10 120 90 153 159 32 67 32
78 4 74 -16 -2 -28 -18 -44 -58 -33 -83 -140 -165 -191 -146 -13 5 -14 4 -3
-9 7 -8 10 -25 6 -38 -5 -20 -12 -24 -46 -24 -22 0 -40 4 -40 10 0 5 -6 5 -13
-2 -17 -14 -27 -4 -27 25 0 15 8 24 26 28 15 4 24 9 22 12 -3 2 -16 0 -30 -5
-20 -7 -37 -4 -75 14 -61 28 -106 74 -139 143 -17 37 -30 52 -44 52 -11 0 -20
-5 -20 -11z"/>
<path d="M4926 4137 c-8 -35 -46 -79 -62 -73 -7 3 -16 1 -19 -5 -4 -5 10 -16
30 -25 36 -15 37 -16 19 -35 -9 -10 -35 -22 -56 -25 -42 -7 -44 -11 -24 -39
13 -19 15 -19 54 -1 55 25 76 19 80 -22 4 -35 -11 -62 -34 -62 -8 0 -14 10
-14 23 0 12 -4 28 -9 36 -8 12 -15 9 -40 -15 -39 -36 -42 -74 -7 -74 14 0 28
5 31 10 10 16 21 12 46 -15 13 -13 32 -25 41 -25 21 0 40 32 38 63 -1 12 -2
43 -1 69 1 42 4 48 25 54 17 4 34 -1 55 -17 24 -18 34 -20 43 -11 20 20 -3 65
-45 85 -20 9 -37 22 -37 28 0 5 14 23 31 38 l31 29 -23 16 c-34 23 -46 20 -64
-18 -21 -44 -62 -83 -75 -70 -6 6 1 21 20 43 34 37 37 46 14 55 -29 11 -42 6
-48 -17z"/>
<path d="M4939 3623 c-1 -4 -2 -19 -3 -33 -1 -20 -8 -26 -44 -33 -53 -10 -52
-33 2 -29 55 4 43 -13 -19 -27 -61 -14 -60 -13 -33 -84 10 -25 15 -28 40 -23
15 3 28 2 28 -3 0 -12 -40 -46 -93 -79 -26 -17 -43 -33 -38 -37 17 -10 88 14
119 40 17 14 32 25 35 25 2 0 2 -19 0 -43 -4 -31 -1 -46 10 -56 25 -20 37 -4
37 48 0 26 3 51 6 54 4 4 24 -9 45 -28 42 -37 71 -48 115 -43 48 5 37 23 -46
67 -88 47 -104 61 -66 61 19 0 30 11 50 47 32 57 24 70 -50 82 -50 8 -45 18
11 23 45 4 40 33 -6 32 -27 -1 -38 4 -45 20 -9 20 -53 36 -55 19z"/>
<path d="M4947 3063 c-4 -3 -2 -12 4 -19 18 -22 3 -42 -35 -50 -20 -3 -36 -10
-36 -14 0 -11 30 -21 41 -14 5 3 9 -5 9 -16 0 -13 -8 -24 -20 -27 -11 -3 -20
-12 -20 -19 0 -16 31 -19 47 -3 15 15 123 25 123 10 0 -6 -12 -11 -26 -11 -20
0 -25 -4 -20 -16 3 -9 6 -38 6 -66 0 -83 60 -125 147 -102 28 8 36 29 18 48
-8 8 -20 27 -27 43 l-12 28 -4 -32 c-5 -46 -25 -60 -57 -39 -24 16 -25 21 -19
69 5 34 14 57 28 68 19 16 20 17 2 44 -10 15 -28 30 -40 34 -15 4 -9 7 24 11
31 3 45 10 45 20 0 11 -16 17 -60 21 -33 3 -56 6 -51 7 5 1 3 9 -4 17 -13 15
-51 20 -63 8z"/>
<path d="M9106 4145 l6 -45 -45 -19 c-54 -23 -67 -40 -38 -48 35 -9 29 -30
-33 -117 -25 -36 -16 -41 31 -18 75 39 99 88 57 121 -20 15 -22 21 -10 21 9 0
39 12 66 26 47 25 112 36 126 21 4 -3 -1 -18 -10 -31 -9 -14 -16 -27 -16 -29
0 -5 69 8 92 17 25 11 29 45 7 67 -21 21 -108 26 -166 10 -31 -9 -32 -9 -27
19 5 22 1 31 -14 39 -32 17 -34 14 -26 -34z"/>
<path d="M9140 3885 c-14 -8 -35 -14 -48 -15 -33 0 -27 -44 6 -48 19 -3 23 -9
20 -35 -3 -29 -8 -34 -51 -46 -49 -15 -58 -34 -26 -54 11 -7 36 -4 85 12 38
12 99 25 137 28 56 5 67 9 67 24 0 30 -35 41 -107 33 -66 -7 -66 -7 -60 17 4
13 7 27 7 32 0 4 6 7 13 7 7 0 23 7 35 16 48 34 -23 60 -78 29z"/>
<path d="M9140 3609 c0 -4 -13 -24 -30 -42 -35 -40 -40 -63 -11 -47 27 14 41
13 41 -4 0 -8 -17 -20 -37 -26 -52 -17 -61 -27 -40 -47 14 -14 22 -15 54 -5
41 13 48 10 39 -13 -6 -17 -9 -18 -87 -34 -31 -7 -65 -18 -75 -26 -18 -13 -18
-14 -1 -33 20 -22 35 -20 109 12 50 22 68 20 68 -5 0 -42 -30 -87 -63 -95 -49
-10 -51 -14 -10 -35 48 -24 98 -25 108 -1 5 9 11 53 14 97 l6 80 63 -3 c57 -4
62 -2 62 17 0 23 -17 29 -90 33 -49 3 -69 31 -31 43 29 9 26 30 -6 44 -16 7
-36 18 -47 26 -17 13 -17 15 -2 30 9 9 14 20 11 25 -7 11 -45 20 -45 9z"/>
<path d="M9236 3142 c-3 -3 -6 -18 -6 -32 0 -33 -24 -59 -34 -35 -6 17 -36 21
-36 4 0 -6 4 -18 10 -28 7 -14 3 -23 -21 -40 -36 -27 -29 -44 16 -35 l33 6 -9
-39 c-14 -61 -11 -161 7 -194 13 -25 20 -30 37 -24 12 4 38 9 58 12 42 6 49
23 49 123 0 43 -5 64 -21 85 -22 27 -34 28 -84 10 -19 -6 -19 -6 1 12 11 10
19 24 17 30 -4 12 16 20 67 25 17 2 26 10 28 26 4 28 -18 37 -57 24 l-29 -10
15 29 c8 16 12 33 9 38 -7 11 -43 21 -50 13z"/>
<path d="M9005 2931 c-51 -31 -68 -56 -55 -80 12 -24 21 -26 38 -9 9 9 12 6
12 -14 0 -14 9 -37 20 -51 11 -14 20 -27 20 -30 0 -3 -16 -15 -35 -27 -54 -33
-46 -50 19 -43 44 5 64 1 111 -21 45 -20 73 -26 129 -26 l72 0 44 45 c24 24
41 47 38 50 -3 4 -23 -1 -44 -11 -47 -20 -192 -23 -246 -5 -34 11 -37 15 -27
33 12 22 5 32 -41 58 -12 7 -13 17 -2 69 18 85 6 99 -53 62z"/>
</g>
</svg>
